<?xml version="1.0" encoding="UTF-8"?>
<svg xmlns="http://www.w3.org/2000/svg" xmlns:xlink="http://www.w3.org/1999/xlink" width="231.702" height="56.554" viewBox="0 0 231.702 56.554">
 <defs>
  <clipPath id="clip-path">
   <rect width="231.702" height="56.554" fill="none"/>
  </clipPath>
 </defs>
 <g transform="translate(-477.647 -334.839)">
  <g transform="translate(477.647 334.839)">
   <g clip-path="url(#clip-path)">
    <g transform="translate(71.583 30.269)">
     <path d="M595.294,410.807v-25.92h11.9a8.043,8.043,0,0,1,3.5.766,8.811,8.811,0,0,1,2.775,2.063,9.628,9.628,0,0,1,1.807,2.9,8.737,8.737,0,0,1,.639,3.249,9.524,9.524,0,0,1-.438,2.885,8.75,8.75,0,0,1-1.278,2.537,8.923,8.923,0,0,1-2.008,1.989l5.476,9.528H609.86l-4.563-7.959h-2.884v7.959Zm7.119-14.165h4.49a1.311,1.311,0,0,0,.84-.329,2.5,2.5,0,0,0,.675-.949,3.694,3.694,0,0,0,.274-1.5,3.3,3.3,0,0,0-.31-1.515,2.579,2.579,0,0,0-.767-.931,1.539,1.539,0,0,0-.894-.329h-4.308Z" transform="translate(-595.294 -384.704)" fill="#241f21"/>
     <path d="M646.559,410.871a12.632,12.632,0,0,1-5.367-1.113,12.966,12.966,0,0,1-4.144-2.994,13.533,13.533,0,0,1-2.665-4.235,13.142,13.142,0,0,1-.931-4.874,12.548,12.548,0,0,1,.986-4.928,13.629,13.629,0,0,1,2.757-4.18,12.906,12.906,0,0,1,4.2-2.9,13.155,13.155,0,0,1,5.312-1.059,12.521,12.521,0,0,1,9.492,4.125,13.94,13.94,0,0,1,2.647,4.253,13.052,13.052,0,0,1,.931,4.838,12.676,12.676,0,0,1-.967,4.892,13.4,13.4,0,0,1-2.738,4.18,13.217,13.217,0,0,1-4.181,2.921A12.926,12.926,0,0,1,646.559,410.871Zm-5.878-13.142a8.82,8.82,0,0,0,.365,2.537,6.851,6.851,0,0,0,1.1,2.19,5.256,5.256,0,0,0,1.844,1.534,6.425,6.425,0,0,0,5.312-.019,5.062,5.062,0,0,0,1.844-1.588,7.226,7.226,0,0,0,1.059-2.226,9.124,9.124,0,0,0,.347-2.5,8.631,8.631,0,0,0-.365-2.518,6.892,6.892,0,0,0-1.1-2.173,5.062,5.062,0,0,0-1.861-1.515,5.981,5.981,0,0,0-2.629-.547,5.627,5.627,0,0,0-2.647.584,5.434,5.434,0,0,0-1.844,1.552,6.575,6.575,0,0,0-1.077,2.19A9.107,9.107,0,0,0,640.681,397.729Z" transform="translate(-610.235 -384.586)" fill="#241f21"/>
     <path d="M692.459,410.871a12.633,12.633,0,0,1-5.367-1.113,12.958,12.958,0,0,1-4.144-2.994,13.533,13.533,0,0,1-2.665-4.235,13.142,13.142,0,0,1-.931-4.874,12.547,12.547,0,0,1,.986-4.928,13.626,13.626,0,0,1,2.756-4.18,12.9,12.9,0,0,1,4.2-2.9,13.153,13.153,0,0,1,5.312-1.059,12.521,12.521,0,0,1,9.492,4.125,13.964,13.964,0,0,1,2.647,4.253,13.053,13.053,0,0,1,.931,4.838,12.677,12.677,0,0,1-.967,4.892,13.379,13.379,0,0,1-2.738,4.18,13.215,13.215,0,0,1-4.18,2.921A12.926,12.926,0,0,1,692.459,410.871Zm-5.878-13.142a8.818,8.818,0,0,0,.365,2.537,6.825,6.825,0,0,0,1.1,2.19,5.256,5.256,0,0,0,1.844,1.534,6.424,6.424,0,0,0,5.312-.019,5.061,5.061,0,0,0,1.844-1.588,7.237,7.237,0,0,0,1.059-2.226,9.122,9.122,0,0,0,.347-2.5,8.653,8.653,0,0,0-.365-2.518,6.908,6.908,0,0,0-1.1-2.173,5.064,5.064,0,0,0-1.862-1.515,5.978,5.978,0,0,0-2.629-.547,5.624,5.624,0,0,0-2.647.584,5.435,5.435,0,0,0-1.844,1.552,6.564,6.564,0,0,0-1.077,2.19A9.107,9.107,0,0,0,686.581,397.729Z" transform="translate(-628.207 -384.586)" fill="#241f21"/>
     <path d="M747.2,410.807V397.153l-4.344,9.6h-3.8l-4.344-9.6v13.654h-7.119v-25.92h7.776l5.586,12.193,5.622-12.193h7.74v25.92Z" transform="translate(-647.095 -384.704)" fill="#241f21"/>
     <path d="M793.4,393.275a23.383,23.383,0,0,0-2.263-1.186,19.147,19.147,0,0,0-2.227-.821,8.171,8.171,0,0,0-2.372-.364,3.376,3.376,0,0,0-1.5.289,1.007,1.007,0,0,0-.585.977,1.214,1.214,0,0,0,.585,1.048,6.1,6.1,0,0,0,1.66.724q1.077.325,2.574.8a22.572,22.572,0,0,1,4.161,1.664,7.184,7.184,0,0,1,2.7,2.406,7.063,7.063,0,0,1,.949,3.889,8.191,8.191,0,0,1-.84,3.889,6.781,6.781,0,0,1-2.264,2.514,9.825,9.825,0,0,1-3.176,1.357,15.462,15.462,0,0,1-3.578.416,20.915,20.915,0,0,1-3.887-.383,26.143,26.143,0,0,1-3.925-1.059,20.617,20.617,0,0,1-3.468-1.587l3.067-6.243a26.992,26.992,0,0,0,2.665,1.424,20.8,20.8,0,0,0,2.683.985,10.423,10.423,0,0,0,2.975.439,3.188,3.188,0,0,0,1.625-.3.9.9,0,0,0,.456-.784,1.291,1.291,0,0,0-.8-1.178,12.024,12.024,0,0,0-2.1-.8q-1.3-.38-2.866-.888a16.2,16.2,0,0,1-3.724-1.722,6.2,6.2,0,0,1-2.154-2.284,6.827,6.827,0,0,1-.694-3.208,8.118,8.118,0,0,1,1.351-4.785,8.576,8.576,0,0,1,3.56-2.919,11.447,11.447,0,0,1,4.764-1,14.673,14.673,0,0,1,3.669.456,23.715,23.715,0,0,1,3.322,1.113q1.551.658,2.72,1.241Z" transform="translate(-666.03 -384.586)" fill="#241f21"/>
    </g>
   </g>
  </g>
  <path d="M477.647,404.381,504.3,368.624l-11.93-.151Z" transform="translate(0 -13.169)" fill="red"/>
  <path d="M516.481,334.968l40.47,56.325-22.2-56.325Z" transform="translate(-15.205 -0.051)" fill="red"/>
  <g transform="translate(477.647 334.839)">
   <g clip-path="url(#clip-path)">
    <g transform="translate(71.583 -0.001)">
     <path d="M614.9,361.059V347.4l-4.344,9.6h-3.8l-4.344-9.6v13.654h-7.119v-25.92h7.776l5.586,12.193,5.622-12.193h7.74v25.92Z" transform="translate(-595.294 -334.956)" fill="#241f21"/>
     <path d="M665.007,354.852v6.206H646.534v-25.92h18.144v6.206H653.652V345h9.419v5.768h-9.419v4.089Z" transform="translate(-615.357 -334.956)" fill="#241f21"/>
     <path d="M700.826,354.852v6.206H682.353v-25.92H700.5v6.206H689.472V345h9.418v5.768h-9.418v4.089Z" transform="translate(-629.381 -334.956)" fill="#241f21"/>
     <path d="M737.162,341.345h-7.448v19.714H722.6V341.345h-7.484v-6.206h22.051Z" transform="translate(-642.208 -334.956)" fill="#241f21"/>
     <path d="M755.611,361.059v-25.92h7.119v25.92Z" transform="translate(-658.065 -334.956)" fill="#241f21"/>
     <path d="M781.749,348.318v12.741h-7.118v-25.92h5.548l10.405,13.179V335.139H797.7v25.92h-5.659Z" transform="translate(-665.512 -334.956)" fill="#241f21"/>
     <path d="M830.185,361.123a13.021,13.021,0,0,1-4.8-.894,11.78,11.78,0,0,1-4.034-2.629,12.41,12.41,0,0,1-2.757-4.2,14.854,14.854,0,0,1-1-5.641,12.5,12.5,0,0,1,1.023-5.075,12.975,12.975,0,0,1,7.046-6.863,13.65,13.65,0,0,1,5.221-.986,13.315,13.315,0,0,1,6.352,1.515,9.88,9.88,0,0,1,4.235,4.144l-5.294,4.052a5.974,5.974,0,0,0-2.3-2.464,6.169,6.169,0,0,0-3.25-.93,5.3,5.3,0,0,0-2.337.511,5.643,5.643,0,0,0-1.843,1.423,6.355,6.355,0,0,0-1.205,2.173,8.666,8.666,0,0,0-.42,2.756,8.3,8.3,0,0,0,.438,2.775,6.443,6.443,0,0,0,1.223,2.135,5.437,5.437,0,0,0,1.88,1.388,5.9,5.9,0,0,0,2.447.492,6.759,6.759,0,0,0,3.285-.858,9.656,9.656,0,0,0,2.848-2.428v6.936A9.721,9.721,0,0,1,830.185,361.123Zm6.389-8.871h-4.782v-5.11h10.66v13.8h-5.878Z" transform="translate(-682.333 -334.838)" fill="#241f21"/>
    </g>
   </g>
  </g>
 </g>
</svg>
