<?xml version="1.0" standalone="no"?>
<!DOCTYPE svg PUBLIC "-//W3C//DTD SVG 20010904//EN"
 "http://www.w3.org/TR/2001/REC-SVG-20010904/DTD/svg10.dtd">
<svg version="1.0" xmlns="http://www.w3.org/2000/svg"
 width="558.000000pt" height="160.000000pt" viewBox="0 0 558.000000 160.000000"
 preserveAspectRatio="xMidYMid meet">

<g transform="translate(0.000000,160.000000) scale(0.100000,-0.100000)"
fill="#000000" stroke="none">
<path d="M3675 1476 c-64 -18 -103 -44 -135 -88 -52 -71 -60 -119 -60 -345 l0
-203 -65 0 -65 0 0 -75 0 -74 63 -3 62 -3 3 -298 2 -297 85 0 85 0 0 300 0
300 115 0 115 0 0 75 0 75 -115 0 -115 0 0 194 c0 114 4 206 11 223 26 70 92
102 162 78 23 -8 42 -13 42 -12 50 81 66 120 54 128 -54 35 -169 47 -244 25z"/>
<path d="M611 1399 c-235 -42 -450 -237 -518 -471 -18 -62 -23 -105 -23 -190
0 -134 10 -177 67 -297 73 -153 203 -267 375 -329 82 -29 78 -29 631 -24 l307
2 0 85 0 84 -125 3 -125 3 45 55 c104 127 148 251 148 420 1 122 -17 198 -68
299 -79 157 -245 295 -415 345 -67 20 -226 28 -299 15z m244 -184 c152 -40
288 -171 335 -324 37 -118 23 -281 -32 -379 -90 -162 -221 -248 -393 -259
-179 -12 -337 68 -437 221 -178 275 -37 657 275 741 70 18 179 18 252 0z"/>
<path d="M4168 1001 l-3 -166 -67 -3 -68 -3 0 -64 0 -65 70 0 70 0 0 -305 0
-305 85 0 85 0 0 305 0 305 100 0 100 0 0 65 0 64 -97 3 -98 3 -3 166 -2 166
-85 0 -85 0 -2 -166z"/>
<path d="M2093 856 c-60 -19 -136 -71 -182 -122 -21 -24 -41 -44 -44 -44 -4 0
-7 33 -9 73 l-3 72 -77 3 -78 3 0 -376 0 -375 84 0 85 0 3 208 c3 193 5 210
26 250 46 86 141 150 225 151 l37 1 0 75 c0 41 0 78 1 83 0 12 -24 11 -68 -2z"/>
<path d="M2580 856 c-104 -31 -164 -73 -215 -149 -46 -69 -67 -144 -67 -242
-2 -239 137 -386 367 -388 78 -1 99 3 149 26 33 15 79 43 103 63 l43 35 0 -55
0 -56 85 0 85 0 0 375 0 375 -79 0 -78 0 -7 -31 c-3 -17 -6 -43 -6 -56 0 -24
-2 -24 -42 17 -64 63 -127 91 -217 96 -46 2 -94 -1 -121 -10z m236 -151 c46
-19 105 -75 125 -120 22 -47 25 -148 7 -207 -16 -53 -78 -122 -129 -142 -54
-22 -144 -22 -194 -2 -220 92 -199 429 30 487 37 9 119 1 161 -16z"/>
<path d="M4993 860 c-230 -46 -365 -284 -294 -519 35 -115 113 -197 228 -241
82 -32 244 -32 323 0 166 66 259 218 247 402 -9 139 -81 256 -194 315 -93 49
-202 64 -310 43z m159 -144 c64 -19 110 -57 143 -118 40 -74 41 -170 2 -250
-100 -205 -392 -161 -440 67 -28 134 54 276 177 305 48 12 69 11 118 -4z"/>
</g>
</svg>
