<svg viewBox="0 0 256 256" xmlns="http://www.w3.org/2000/svg"><style>.st0{fill:none;stroke:#000;stroke-width:4;stroke-linecap:round;stroke-linejoin:round;stroke-miterlimit:10}</style><path class="st0" d="M130.2 227c63.9-3.6 108.6-52 97.2-116.5-9.3-52.5-60.7-87.6-112.7-80.6C62 37 21.4 86 27.4 139A94.2 94.2 0 0 0 87 219.3c5.7 2.4 13.4 5.8 16 5.3 2.6-.6 1.7-15 1.7-22-16 2.5-21.4-3.8-24.8-7.5-3.9-4.2-6.2-8.5-10.1-15s-11-4.8-11.8-8.5S73 169 84.4 183c8.2 10.1 17 7 21.6 4.2a24 24 0 0 1 1.5-6.2c1-2.6 3.6-4.1 3.2-5.9-.5-1.7-21.8-.6-34-17.7a43 43 0 0 1 3.1-53.2 27.5 27.5 0 0 1 0-23.3 46.9 46.9 0 0 1 26.6 9.3 70.7 70.7 0 0 1 44.8 0 41 41 0 0 1 24.6-10.4 27.4 27.4 0 0 1 .8 24c2.8 3.4 7.4 9.8 9.5 19 .7 3.2 4.8 21-7 36.2-12.4 16-33 13.5-34 15.7-1 2.2 4 6.3 6.3 15 2.3 8.5 1.3 24.9 1.3 24.9"/></svg>