<svg viewBox="0 0 256 256" xmlns="http://www.w3.org/2000/svg"><style>.st0{fill:none;stroke:#000;stroke-width:4;stroke-linecap:round;stroke-linejoin:round;stroke-miterlimit:10}</style><path class="st0" d="M34.4 105.3C19 164.3 55.9 224 111.7 236.2c54.5 11.8 108.7-25 122.1-78.2 13.6-54-18.1-112.5-72-127.3C77.3 8 39.5 84.5 39.5 88.4"/><path class="st0" d="M106.7 169c-.4-21 1-61.5-1-63.4-2-2-17-8-19.9-12.5-2.8-4.6-2-13.7 8.2-13.7s11.4 8.7 8.7 14.3c-2.6 5.7-17.5 9.8-19.2 12.1-1.8 2.3-2.5 68.3 0 70 2.4 1.5 32.9 1.4 35.6-.6 2.7-2-3.4-67.5 0-69.1s17.4-1.9 19.1-1c1.8.7.7 7.6 2 8.3 1.1.7 10.1-11.2 24.2-9.5 10.5 1.3 19.9 10.2 21.3 19s1 34.5.6 51.7l-21.6 1c-.3-14.6 1-33.6-.8-43.6-2-10-22.4-9.9-22.2 0s1.7 43.6-2.7 43.4" id="linkedin"/></svg>