<svg viewBox="0 0 256 256" xmlns="http://www.w3.org/2000/svg"><style>.st0{fill:none;stroke:#000;stroke-width:4;stroke-linecap:round;stroke-linejoin:round;stroke-miterlimit:10}</style><path class="st0" d="M105.3 168c-1.3.2-10-.1-17.5-6.3-7.5-6-8.7-13.7-8.1-14.3.5-.6 12.5 1.2 12.7.6.3-1.4-8-4.7-13.8-11.1-5.4-6-7.4-17-6.5-18 1-1.2 11.8 5.4 12.2 4.8.9-1.3-7-6.8-9.8-16.2-2.2-7.9.8-21 2.7-21.3s12 14 24.3 20.7c12.1 6.7 27.5 12.1 30 9.5 2.5-2.6-3.8-19 11.9-29.2 16.5-9.7 32 3.7 33.7 4s14.6-6.8 15.1-5.8-8.4 11.7-7.3 13c1.2 1 10.8-2.6 10.8-1.2 0 1.5-10.2 8.3-11 11.1s4.5 23.5-11 46c-35.5 44.4-92.3 45.6-106.4 23.4"/><path class="st0" d="M21 135.5c3.2 60.9 56.3 106.7 113.2 101.5 55.5-5.1 96.1-56.5 92.9-111.4C223.7 70 175.9 24 120 26c-87.4 3.8-100.3 88.2-99.2 91.8"/></svg>