<svg viewBox="0 0 256 256" xmlns="http://www.w3.org/2000/svg"><style>.st0{fill:none;stroke:currentColor;stroke-width:4;stroke-linecap:round;stroke-linejoin:round;stroke-miterlimit:10}</style><path class="st0" d="M125.2 33.2C64.7 41 23 97.4 32.5 153.7c9.3 55 63.7 91.6 118.1 84.2 55.2-7.6 97.6-58.7 91.2-114.3-10.4-86.9-95.4-93.4-99-92"/><path class="st0" d="M164.2 81.2c-2 .1-39.5 66.9-39.5 69 0 2 24 44 25.5 44.6 1.5.6 26.1 1.2 27.2.3 1-1-26.6-42.7-26.6-44.4-.1-1.7 41.3-67.6 40.6-69.5-.7-2-11.6-1.4-18.3-.9" id="xing"/><path class="st0" d="M127.3 128.7c1.4-1.8-11.7-26-13.2-27.2s-25.7-1.4-26.3.3c-.7 1.6 14.4 23.5 14.6 26S81.9 160 82.6 161.3c.7 1.3 23.7.6 25.2-.3 1.6-.8 10.3-16 15.5-24" id="xing_1_"/></svg>